<?xml version="1.0" encoding="utf-8"?>
<!-- Generator: Adobe Illustrator 27.0.0, SVG Export Plug-In . SVG Version: 6.00 Build 0)  -->
<svg version="1.1" id="Layer_1" xmlns="http://www.w3.org/2000/svg" xmlns:xlink="http://www.w3.org/1999/xlink" x="0px" y="0px"
	 viewBox="0 0 1920 274.2" style="enable-background:new 0 0 1920 274.2;" xml:space="preserve">
<style type="text/css">
	.st0{fill:#FFFFFF;}
	.st1{opacity:0.2;}
</style>
<g>
	<path class="st0" d="M1619.3,94.5c-97,11.9-152.6,81-223.7-41.5c-59.7-102.9-113.9-3.2-113.9-3.2s-25.7,66.9-97.9,46.1
		c-72.2-20.8-122.9,18.3-127.8,59.1c-5.5,45.1-20.1,112.4-96.5,109.3c-76.4-3.1-54.9-10.6-195.9-124.2
		C655.2,52.7,542,99.5,495.3,125.9c-11,6.2-21.2,13.5-30.5,21.8c-30.5,26.8-99.6,140.4-231.7,99.7c-75-23.1-73.1-21.9-158.2,2.7
		c-25.8,7.5-60.1,9.7-74.9,6.6v17.6l0,0h1920v-17.6l-51.8-5.7C1740.4,226.4,1740.5,79.7,1619.3,94.5z"/>
</g>
<g class="st1">
	<path class="st0" d="M1619.7,87.1c-97.1,10.9-150.8,86.5-225.9-47.4c-31.1-55.5-68.3-41.7-91.2-24.5c-11,8.2-19.6,19.2-25.7,31.6
		c-10,20.5-36.7,59.5-90.9,42.9c-72.2-22.1-132.1,17.6-137,61.1c-5.5,48-14.2,109.7-89,107c-76.4-2.7-44.9-3.7-189.9-119.9
		c-115.5-92.7-228.7-59.7-305.3,1.5c-32.3,25.8-102.3,143.7-232.1,103c-75.3-23.6-72.9-22.5-158,3.8c-25.8,8-59.8,9.6-74.6,6.3v21.8
		l0,0h1920v-21.8l-51.1-7.8C1741,218.5,1746.9,72.8,1619.7,87.1z"/>
</g>
</svg>
